<?xml version="1.0" encoding="utf-8"?>
<!-- Generator: Adobe Illustrator 23.0.1, SVG Export Plug-In . SVG Version: 6.00 Build 0)  -->
<svg version="1.1"
	 id="svg8" inkscape:version="0.92.4 (5da689c313, 2019-01-14)" sodipodi:docname="1881161.svg" xmlns:cc="http://creativecommons.org/ns#" xmlns:dc="http://purl.org/dc/elements/1.1/" xmlns:inkscape="http://www.inkscape.org/namespaces/inkscape" xmlns:rdf="http://www.w3.org/1999/02/22-rdf-syntax-ns#" xmlns:sodipodi="http://sodipodi.sourceforge.net/DTD/sodipodi-0.dtd" xmlns:svg="http://www.w3.org/2000/svg"
	 xmlns="http://www.w3.org/2000/svg" xmlns:xlink="http://www.w3.org/1999/xlink" x="0px" y="0px" viewBox="0 0 24 24"
	 style="enable-background:new 0 0 24 24;" xml:space="preserve">
<path id="path4" inkscape:connector-curvature="0" d="M16.6,14c-0.2-0.1-1.5-0.7-1.7-0.8s-0.4-0.1-0.6,0.1c-0.2,0.2-0.6,0.8-0.8,1
	c-0.1,0.2-0.3,0.2-0.5,0.1c-0.7-0.3-1.4-0.7-2-1.2c-0.5-0.5-1-1.1-1.4-1.7c-0.1-0.2,0-0.4,0.1-0.5s0.2-0.3,0.4-0.4
	c0.1-0.1,0.2-0.3,0.2-0.4c0.1-0.1,0.1-0.3,0-0.4C10.2,9.7,9.7,8.5,9.5,8C9.4,7.3,9.2,7.3,9,7.3c-0.1,0-0.3,0-0.5,0S8,7.5,7.9,7.6
	C7.3,8.2,7,8.9,7,9.7c0.1,0.9,0.4,1.8,1,2.6c1.1,1.6,2.5,2.9,4.2,3.7c0.5,0.2,0.9,0.4,1.4,0.5c0.5,0.2,1,0.2,1.6,0.1
	c0.7-0.1,1.3-0.6,1.7-1.2c0.2-0.4,0.2-0.8,0.1-1.2C17,14.2,16.8,14.1,16.6,14 M19.1,4.9C15.2,1,8.9,1,5,4.9c-3.2,3.2-3.8,8.1-1.6,12
	L2,22l5.3-1.4c1.5,0.8,3.1,1.2,4.7,1.2l0,0c5.5,0,9.9-4.4,9.9-9.9C22,9.3,20.9,6.8,19.1,4.9 M16.4,18.9c-1.3,0.8-2.8,1.3-4.4,1.3
	l0,0c-1.5,0-2.9-0.4-4.2-1.1l-0.3-0.2l-3.1,0.8l0.8-3L5,16.4c-2.4-4-1.2-9,2.7-11.5S16.6,3.7,19,7.5C21.4,11.4,20.3,16.5,16.4,18.9"
	/>
</svg>
