<?xml version="1.0" encoding="utf-8"?>
<!-- Generator: Adobe Illustrator 23.0.1, SVG Export Plug-In . SVG Version: 6.00 Build 0)  -->
<svg version="1.1" id="Capa_1" xmlns="http://www.w3.org/2000/svg" xmlns:xlink="http://www.w3.org/1999/xlink" x="0px" y="0px"
	 viewBox="0 0 90 90" style="enable-background:new 0 0 90 90;" xml:space="preserve">
<g>
	<g>
		<path d="M76.9,22.8c-1.9-3.8-5.8-6.2-10.1-6.2H50.4c-4.3,0-8.2,2.4-10.1,6.2l-4.9,9.6h-10c-4.3,0-8.2,2.4-10.1,6.2l-12,23.8
			c-2.5,5,1.1,11,6.8,11H61c5.6,0,9.3-5.9,6.8-11L63,52.9h16.9c5.6,0,9.3-5.9,6.8-11L76.9,22.8z M44.3,24.8c1.2-2.3,3.5-3.7,6.1-3.7
			h10.1h4.6c1.9,0,2.2,0.9,0.7,2.1l-9.9,7.1c-1.9,1.4-4.3,2.1-6.6,2.1c-1.1,0-2.3,0-3.3,0c-0.1,0-0.3,0-0.4,0h-5.1L44.3,24.8z
			 M34.8,46.9c-0.3-0.4-0.8-1.6-0.1-2.9l3.5-7h7.4c2.6,0,4.9,1.4,6.1,3.7l3.9,7.6H37.4C35.9,48.3,35.1,47.3,34.8,46.9z M19.3,40.7
			c1.2-2.3,3.5-3.7,6.1-3.7h7.8l-0.9,1.8l0,0l-5.1,10.1c-0.9,1.8-3,4.3-4.7,5.5l-11.8,8.4c-2,1.4-2.8,0.8-1.7-1.4l2.5-5.2L19.3,40.7
			z M63.7,64.4c0.7,1.4,0.1,2.5-0.1,2.9c-0.3,0.4-1.1,1.4-2.6,1.4H19.1l0,0H16h-2.5c-1.9,0-2.1-0.9-0.6-2l15.3-11
			c2.2-1.6,6.2-2.9,8.8-2.9h5.3l0,0h15.4L63.7,64.4z M82.4,46.9c-0.3,0.4-1.1,1.4-2.6,1.4H60.7l-3-5.9v-0.1
			c-1.6-3.3-0.6-7.3,2.4-9.5l11.3-8.2c0.6-0.4,1.3-0.2,1.7,0.4l0.6,1.2l8.8,17.7C83.2,45.3,82.7,46.5,82.4,46.9z"/>
	</g>
</g>
</svg>
